<?xml version="1.0"?>
<svg width="980" height="980" xmlns="http://www.w3.org/2000/svg" xmlns:svg="http://www.w3.org/2000/svg" preserveAspectRatio="xMidYMid meet" version="1.0">
 <g class="layer">
  <title>Layer 1</title>
  <g fill="#000000" id="svg_1" transform="matrix(0.1 0 0 -0.1 0 0)">
   <path d="m4625,-7c-815,-42 -1660,-313 -2355,-755c-510,-324 -980,-766 -1335,-1253c-509,-701 -815,-1504 -912,-2395c-25,-232 -25,-748 0,-980c51,-464 161,-920 322,-1325c59,-151 222,-486 305,-630c600,-1044 1572,-1834 2718,-2212c837,-275 1778,-317 2642,-117c760,177 1439,515 2050,1024c159,132 455,428 589,590c642,768 1018,1660 1128,2670c25,231 25,817 0,1040c-129,1153 -607,2139 -1428,2946c-375,367 -763,644 -1239,883c-761,381 -1619,559 -2485,514zm510,-603c200,-12 368,-32 555,-66c1737,-318 3125,-1683 3464,-3404c57,-293 70,-438 71,-810c0,-373 -7,-471 -55,-755c-307,-1809 -1716,-3218 -3525,-3525c-280,-47 -384,-55 -740,-55c-356,0 -459,8 -741,55c-716,122 -1403,432 -1983,896c-163,131 -436,396 -574,557c-556,651 -892,1408 -1007,2267c-27,200 -38,628 -21,832c101,1215 684,2314 1630,3070c829,663 1880,999 2926,938z" fill="#ffffff" id="svg_2"/>
   <path d="m4614,-2396c-521,-80 -860,-395 -995,-924c-58,-227 -89,-565 -70,-765c44,-481 236,-896 557,-1206c356,-344 759,-444 1158,-288c331,129 625,412 805,774c151,305 205,587 181,947c-19,285 -55,472 -128,668c-45,120 -72,174 -139,277c-181,279 -453,453 -802,513c-137,24 -426,26 -567,4z" fill="#ffffff" id="svg_3" transform="matrix(1 0 0 1 0 0)"/>
   <path d="m3680,-5675c-270,-74 -485,-191 -648,-354c-159,-160 -303,-445 -318,-633c-16,-187 68,-354 230,-460l59,-38l1950,0l1950,0l47,30c106,68 184,178 217,303c33,130 0,336 -81,495c-41,82 -275,322 -412,425c-142,106 -392,220 -530,242c-39,7 -41,6 -82,-48c-97,-126 -293,-294 -439,-377c-218,-125 -396,-169 -688,-170c-234,0 -400,33 -582,115c-195,89 -427,280 -568,466l-20,27l-85,-23z" fill="#ffffff" id="svg_4" transform="matrix(1 0 0 1 0 0)"/>
  </g>
 </g>
</svg>