<svg width="1258" height="267" viewBox="0 0 1258 267" fill="none" xmlns="http://www.w3.org/2000/svg">
<path d="M235.4 54H267.6V145.2L334.4 54H364.8V194H332.8V103L266 194H235.4V54ZM397.258 86.4H428.258V128.4H475.058V86.4H506.258V194H475.058V153.8H428.258V194H397.258V86.4ZM626.525 112H590.125V194H559.125V112H522.725V86.4H626.525V112ZM751.933 86.4L703.333 200.6C698.399 213 692.266 221.733 684.933 226.8C677.733 231.867 668.999 234.4 658.733 234.4C653.133 234.4 647.599 233.533 642.133 231.8C636.666 230.067 632.199 227.667 628.733 224.6L640.133 202.4C642.533 204.533 645.266 206.2 648.333 207.4C651.533 208.6 654.666 209.2 657.733 209.2C661.999 209.2 665.466 208.133 668.133 206C670.799 204 673.199 200.6 675.333 195.8L675.733 194.8L629.133 86.4H661.333L691.533 159.4L721.933 86.4H751.933ZM830.384 84.8C840.384 84.8 849.451 87.1333 857.584 91.8C865.851 96.3333 872.318 102.8 876.984 111.2C881.651 119.467 883.984 129.133 883.984 140.2C883.984 151.267 881.651 161 876.984 169.4C872.318 177.667 865.851 184.133 857.584 188.8C849.451 193.333 840.384 195.6 830.384 195.6C816.651 195.6 805.851 191.267 797.984 182.6V232.8H766.784V86.4H796.584V98.8C804.318 89.4667 815.584 84.8 830.384 84.8ZM824.984 170C832.984 170 839.518 167.333 844.584 162C849.784 156.533 852.384 149.267 852.384 140.2C852.384 131.133 849.784 123.933 844.584 118.6C839.518 113.133 832.984 110.4 824.984 110.4C816.984 110.4 810.384 113.133 805.184 118.6C800.118 123.933 797.584 131.133 797.584 140.2C797.584 149.267 800.118 156.533 805.184 162C810.384 167.333 816.984 170 824.984 170ZM905.852 86.4H936.852V150.4L989.252 86.4H1017.85V194H986.852V130L934.652 194H905.852V86.4ZM1099.04 195.6C1087.58 195.6 1077.24 193.267 1068.04 188.6C1058.98 183.8 1051.84 177.2 1046.64 168.8C1041.58 160.4 1039.04 150.867 1039.04 140.2C1039.04 129.533 1041.58 120 1046.64 111.6C1051.84 103.2 1058.98 96.6667 1068.04 92C1077.24 87.2 1087.58 84.8 1099.04 84.8C1110.38 84.8 1120.24 87.2 1128.64 92C1137.18 96.6667 1143.38 103.4 1147.24 112.2L1123.04 125.2C1117.44 115.333 1109.38 110.4 1098.84 110.4C1090.71 110.4 1083.98 113.067 1078.64 118.4C1073.31 123.733 1070.64 131 1070.64 140.2C1070.64 149.4 1073.31 156.667 1078.64 162C1083.98 167.333 1090.71 170 1098.84 170C1109.51 170 1117.58 165.067 1123.04 155.2L1147.24 168.4C1143.38 176.933 1137.18 183.6 1128.64 188.4C1120.24 193.2 1110.38 195.6 1099.04 195.6ZM1256.21 112H1219.81V194H1188.81V112H1152.41V86.4H1256.21V112Z" fill="black"/>
<path d="M21.2922 25L108.645 68.42L196.581 25H21.2922Z" fill="white" stroke="#187532" stroke-width="10"/>
<path d="M104 76.1897V243.285L10.086 30.471L104 76.1897Z" fill="white" stroke="#187532" stroke-width="10"/>
<path d="M114 76.1897V243.285L207.914 30.471L114 76.1897Z" fill="white" stroke="#187532" stroke-width="10"/>
</svg>
