<svg width="1258" height="267" viewBox="0 0 1258 267" fill="none" xmlns="http://www.w3.org/2000/svg">
<path d="M235.4 194V54H267.6V145.2L334.4 54H364.8V194H332.8V103L266 194H235.4ZM397.258 194V86.4H428.258V128.4H475.058V86.4H506.258V194H475.058V153.8H428.258V194H397.258ZM559.125 194V104.8L566.125 112H522.725V86.4H626.525V112H583.125L590.125 104.8V194H559.125ZM658.342 234.4C652.742 234.4 647.209 233.533 641.742 231.8C636.276 230.067 631.809 227.667 628.342 224.6L639.742 202.4C642.142 204.533 644.876 206.2 647.942 207.4C651.142 208.6 654.276 209.2 657.342 209.2C661.742 209.2 665.209 208.133 667.742 206C670.409 204 672.809 200.6 674.942 195.8L680.542 182.6L682.942 179.2L721.542 86.4H751.542L702.942 200.6C699.476 209.267 695.476 216.067 690.942 221C686.542 225.933 681.609 229.4 676.142 231.4C670.809 233.4 664.876 234.4 658.342 234.4ZM676.742 198.2L628.742 86.4H660.942L698.142 176.4L676.742 198.2ZM829.994 195.6C820.927 195.6 812.994 193.6 806.194 189.6C799.394 185.6 794.06 179.533 790.194 171.4C786.46 163.133 784.594 152.733 784.594 140.2C784.594 127.533 786.394 117.133 789.994 109C793.594 100.867 798.794 94.8 805.594 90.8C812.394 86.8 820.527 84.8 829.994 84.8C840.127 84.8 849.194 87.1333 857.194 91.8C865.327 96.3333 871.727 102.733 876.394 111C881.194 119.267 883.594 129 883.594 140.2C883.594 151.533 881.194 161.333 876.394 169.6C871.727 177.867 865.327 184.267 857.194 188.8C849.194 193.333 840.127 195.6 829.994 195.6ZM766.394 232.8V86.4H796.194V108.4L795.594 140.4L797.594 172.2V232.8H766.394ZM824.594 170C829.794 170 834.394 168.8 838.394 166.4C842.527 164 845.794 160.6 848.194 156.2C850.727 151.667 851.994 146.333 851.994 140.2C851.994 133.933 850.727 128.6 848.194 124.2C845.794 119.8 842.527 116.4 838.394 114C834.394 111.6 829.794 110.4 824.594 110.4C819.394 110.4 814.727 111.6 810.594 114C806.46 116.4 803.194 119.8 800.794 124.2C798.394 128.6 797.194 133.933 797.194 140.2C797.194 146.333 798.394 151.667 800.794 156.2C803.194 160.6 806.46 164 810.594 166.4C814.727 168.8 819.394 170 824.594 170ZM905.461 194V86.4H936.461V150.4L988.861 86.4H1017.46V194H986.461V130L934.261 194H905.461ZM1098.65 195.6C1087.05 195.6 1076.72 193.267 1067.65 188.6C1058.59 183.8 1051.45 177.2 1046.25 168.8C1041.19 160.4 1038.65 150.867 1038.65 140.2C1038.65 129.4 1041.19 119.867 1046.25 111.6C1051.45 103.2 1058.59 96.6667 1067.65 92C1076.72 87.2 1087.05 84.8 1098.65 84.8C1109.99 84.8 1119.85 87.2 1128.25 92C1136.65 96.6667 1142.85 103.4 1146.85 112.2L1122.65 125.2C1119.85 120.133 1116.32 116.4 1112.05 114C1107.92 111.6 1103.39 110.4 1098.45 110.4C1093.12 110.4 1088.32 111.6 1084.05 114C1079.79 116.4 1076.39 119.8 1073.85 124.2C1071.45 128.6 1070.25 133.933 1070.25 140.2C1070.25 146.467 1071.45 151.8 1073.85 156.2C1076.39 160.6 1079.79 164 1084.05 166.4C1088.32 168.8 1093.12 170 1098.45 170C1103.39 170 1107.92 168.867 1112.05 166.6C1116.32 164.2 1119.85 160.4 1122.65 155.2L1146.85 168.4C1142.85 177.067 1136.65 183.8 1128.25 188.6C1119.85 193.267 1109.99 195.6 1098.65 195.6ZM1188.62 194V104.8L1195.62 112H1152.22V86.4H1256.02V112H1212.62L1219.62 104.8V194H1188.62Z" fill="white"/>
<path d="M21.2922 25L108.645 68.42L196.581 25H21.2922Z" fill="white" stroke="#187532" stroke-width="10"/>
<path d="M104 76.1897V243.285L10.086 30.471L104 76.1897Z" fill="white" stroke="#187532" stroke-width="10"/>
<path d="M114 76.1897V243.285L207.914 30.471L114 76.1897Z" fill="white" stroke="#187532" stroke-width="10"/>
</svg>
