<?xml version="1.0" standalone="no"?>
<!DOCTYPE svg PUBLIC "-//W3C//DTD SVG 20010904//EN"
 "http://www.w3.org/TR/2001/REC-SVG-20010904/DTD/svg10.dtd">
<svg version="1.0" xmlns="http://www.w3.org/2000/svg"
 width="900.000000pt" height="760.000000pt" viewBox="0 0 900.000000 760.000000"
 preserveAspectRatio="xMidYMid meet">
<metadata>
Created by potrace 1.16, written by Peter Selinger 2001-2019
</metadata>
<g transform="translate(0.000000,760.000000) scale(0.100000,-0.100000)"
fill="#000000" stroke="none">
<path d="M4110 7580 c-661 -60 -1319 -306 -1865 -698 -307 -221 -616 -525
-847 -837 -237 -321 -447 -736 -566 -1120 -245 -789 -226 -1640 54 -2413 285
-785 837 -1471 1544 -1919 518 -328 1100 -522 1717 -574 181 -15 617 -6 783
16 579 77 1104 268 1582 577 l98 63 -241 348 -240 347 -57 -39 c-272 -184
-658 -346 -992 -416 -267 -56 -626 -79 -876 -56 -724 68 -1369 376 -1869 892
-450 465 -725 1041 -810 1694 -21 158 -24 523 -6 670 61 494 215 919 476 1310
118 177 200 280 345 429 231 238 487 427 780 575 311 158 616 252 980 303 146
20 594 17 744 -5 699 -105 1283 -404 1745 -894 l102 -108 -367 -122 c-202 -67
-368 -124 -370 -126 -2 -2 150 -141 339 -308 188 -168 610 -544 939 -836 515
-459 597 -528 602 -510 3 12 48 231 101 487 53 256 111 539 130 630 19 91 77
374 130 630 53 256 106 517 120 580 13 63 23 116 22 117 -2 1 -182 -57 -401
-130 l-399 -131 -26 34 c-266 352 -576 656 -902 883 -491 341 -1051 556 -1679
643 -134 18 -670 27 -820 14z"/>
</g>
</svg>
